<svg xmlns="http://www.w3.org/2000/svg" width="48" height="48" viewBox="0 0 48 48">
  <!-- "V" from Lora Bold (700), converted to path -->
  <path d="M16.3 40.1 L5.7 15.6 Q5.3 14.4 4.9 13.2 Q4.5 12.0 4.5 11.2 Q3.7 11.3 3.1 11.3 Q2.5 11.3 2.0 11.4 V7.9 H15.5 V10.9 Q13.8 10.8 12.9 11.6 Q12.0 12.4 12.8 14.4 Q13.9 17.0 14.9 19.6 Q16.0 22.2 17.0 24.7 Q17.8 26.7 18.4 28.1 Q18.9 29.5 19.6 31.3 H19.7 Q20.2 29.9 20.8 28.2 Q21.3 26.5 21.9 25.0 Q22.5 23.4 23.1 21.8 Q23.6 20.2 24.2 18.6 Q24.8 17.0 25.4 15.4 Q25.6 14.6 26.1 13.3 Q26.6 12.0 27.2 11.2 Q26.5 11.3 25.4 11.3 Q24.2 11.3 23.7 11.4 V7.9 H34.0 V10.9 Q32.4 10.9 31.3 12.0 Q30.2 13.1 29.2 15.8 Q28.4 17.8 27.6 19.8 Q26.9 21.9 26.1 23.9 Q25.4 25.9 24.6 28.0 Q23.8 30.0 23.1 32.0 Q22.3 34.1 21.5 36.1 Q20.8 38.1 20.0 40.1Z" fill="#2c2c28"/>
  <!-- Green dot -->
  <circle cx="38" cy="36" r="6" fill="#3d6b4e"/>
</svg>
